<svg xmlns="http://www.w3.org/2000/svg" width="600" height="400" viewBox="0 0 600 400">
  <defs>
    <linearGradient id="bgGrad" x1="0%" y1="0%" x2="100%" y2="100%">
      <stop offset="0%" stop-color="#001F3F"/>
      <stop offset="100%" stop-color="#004E8C"/>
    </linearGradient>
    <linearGradient id="goldGrad" x1="0%" y1="0%" x2="100%" y2="100%">
      <stop offset="0%" stop-color="#F2D06B"/>
      <stop offset="100%" stop-color="#C8A94E"/>
    </linearGradient>
  </defs>
  <rect width="600" height="400" fill="url(#bgGrad)"/>
  <circle cx="300" cy="200" r="140" fill="rgba(255,255,255,0.03)" stroke="rgba(200,169,78,0.2)" stroke-width="1.5" stroke-dasharray="6,6"/>
  
  <!-- Shirt/PDH Icon -->
  <g transform="translate(250, 110)">
    <path d="M20,20 L40,40 L60,40 L80,20 L100,45 L85,85 L70,75 L70,140 L30,140 L30,75 L15,85 L0,45 Z" fill="rgba(255,255,255,0.12)" stroke="url(#goldGrad)" stroke-width="3" stroke-linejoin="round"/>
    <path d="M40,40 Q50,55 60,40" fill="none" stroke="url(#goldGrad)" stroke-width="2.5"/>
    <line x1="50" y1="50" x2="50" y2="140" stroke="rgba(255,255,255,0.3)" stroke-width="2" stroke-dasharray="4,4"/>
    <circle cx="50" cy="70" r="3" fill="#C8A94E"/>
    <circle cx="50" cy="95" r="3" fill="#C8A94E"/>
    <circle cx="50" cy="120" r="3" fill="#C8A94E"/>
  </g>
  
  <text x="300" y="290" font-family="'Inter', system-ui, sans-serif" font-size="22" fill="#FFFFFF" text-anchor="middle" font-weight="700" letter-spacing="1">PDH RESMI D25</text>
  <text x="300" y="320" font-family="'Inter', system-ui, sans-serif" font-size="14" fill="#C8A94E" text-anchor="middle" font-weight="600">Teknologi Pendidikan - Univ. Negeri Malang</text>
</svg>
